<svg t="1769743637889" class="icon" viewBox="0 0 1024 1024" version="1.1" xmlns="http://www.w3.org/2000/svg" p-id="10612" width="1024" height="1024"><path d="M550.778259 237.909333a9.836606 9.836606 0 0 0-9.960727-8.129939H480.21535a9.836606 9.836606 0 0 0-8.129939 9.960727v336.523637a9.309091 9.309091 0 0 0 3.630545 6.20606l202.627879 146.556121 1.799758 0.899879a9.588364 9.588364 0 0 0 11.760485-2.699636l34.381575-47.04194 0.899879-1.799757a9.588364 9.588364 0 0 0-2.699636-11.760485l-173.769697-125.734788z" fill="#171717" p-id="10613"></path><path d="M84.92032 512a9.619394 9.619394 0 0 0 8.129939-9.060848 407.458909 407.458909 0 0 1 32.550788-153.786182 415.309576 415.309576 0 0 1 89.553455-132.964849 410.561939 410.561939 0 0 1 132.964848-89.553454 418.288485 418.288485 0 0 1 458.627879 89.553454 335.127273 335.127273 0 0 1 33.481697 37.981091l-73.262545 57.002667-0.899879 0.899879a10.053818 10.053818 0 0 0 4.530424 16.290909l213.488485 52.472242h1.799757a10.24 10.24 0 0 0 10.860607-9.960727l0.899878-219.818667V149.255758a9.681455 9.681455 0 0 0-15.515151-6.206061l-68.763152 53.372121-4.530424-6.20606A510.820848 510.820848 0 0 0 0.797168 502.039273a10.053818 10.053818 0 0 0 9.960728 9.960727h74.162424z m928.116364 0H937.91232a9.619394 9.619394 0 0 0-8.129939 9.060848 407.427879 407.427879 0 0 1-32.550788 153.786182 418.319515 418.319515 0 0 1-681.177212 132.964849 335.127273 335.127273 0 0 1-33.481697-37.981091l73.262545-57.002667 0.899879-0.899879a10.053818 10.053818 0 0 0-4.530424-16.290909l-213.488485-52.472242h-1.799758a10.24 10.24 0 0 0-10.860606 9.960727l-0.899879 219.818667v1.799757a9.681455 9.681455 0 0 0 15.515152 6.206061l68.763151-53.372121 4.530425 6.20606a511.441455 511.441455 0 0 0 909.187878-311.171878 10.27103 10.27103 0 0 0-9.960727-10.860606z" fill="#171717" p-id="10614"></path></svg>